<?xml version="1.0" standalone="no"?>
<!DOCTYPE svg PUBLIC "-//W3C//DTD SVG 1.1//EN" "http://www.w3.org/Graphics/SVG/1.1/DTD/svg11.dtd">
<svg xmlns="http://www.w3.org/2000/svg">
<metadata>Copyright (C) 2018 by original authors @ fontello.com</metadata>
<defs>
<font id="fontello" horiz-adv-x="1000" >
<font-face font-family="fontello" font-weight="400" font-stretch="normal" units-per-em="1000" ascent="850" descent="-150" />
<missing-glyph horiz-adv-x="1000" />
<glyph glyph-name="right-open" unicode="&#xe800;" d="M0-2l352 352-352 352 148 148 352-351 148-149-148-148-352-352z" horiz-adv-x="648" />

<glyph glyph-name="md-video" unicode="&#xe801;" d="M209 533l416 0 0-365-416 0 0 365z m364-313l0 260-313 0 0-260 313 0z m105 625q65 0 110-46t46-110l0-678q0-65-46-110t-110-46l-157 0 0 104-208 0 0-104-157 0q-65 0-110 46t-46 110l0 678q0 65 46 110t110 46l157 0 0-105 208 0 0 105 157 0z m51-209l0 53q0 21-15 36t-36 15l-53 0 0-104-416 0 0 104-53 0q-21 0-37-15t-15-36l0-53q21 0 37-15t15-37-15-36-37-15l0-53q21 0 37-16t15-36-15-37-37-15l0-52q21 0 37-16t15-37-15-36-37-15l0-52q21 0 37-16t15-37-15-36-37-15l0-53q0-21 15-37t37-15l53 0 0 105 416 0 0-105 53 0q21 0 36 15t15 37l0 53q-21 0-36 15t-15 36 15 37 36 16l0 52q-21 0-36 15t-15 36 15 37 36 16l0 52q-21 0-36 15t-15 37 15 36 36 16l0 53q-21 0-36 15t-15 36 15 37 36 15z" horiz-adv-x="834" />

<glyph glyph-name="left-open" unicode="&#xe802;" d="M0 350l148 149 352 351 148-148-351-352 351-352-148-148-352 352z" horiz-adv-x="648" />

<glyph glyph-name="tag" unicode="&#xe803;" d="M0 100l0 500q0 51 36 88t89 37l594 0q68 0 105-59l156-250q43-66 0-132l-156-250q-37-59-105-59l-594 0q-53 0-89 36t-36 89z m63 0q0-25 18-44t44-18l594 0q35 0 52 29l157 250q21 33 0 66l-157 250q-17 29-52 29l-594 0q-25 0-44-18t-18-44l0-500z m562 250q0 39 27 66t67 28 66-28 27-66-27-66-66-28-67 28-27 66z m31 0q0-25 19-44t44-18 44 18 18 44-18 44-44 19-44-19-19-44z" horiz-adv-x="1002" />

<glyph glyph-name="md-logo-facebook" unicode="&#xe80e;" d="M834 725h-668c-22 0-41-19-41-41v-668c0-22 19-41 41-41h334v297h-90v109h90v81c0 97 67 150 154 150 41 0 86-3 96-5v-101h-69c-47 0-56-22-56-55v-70h112l-14-109h-98v-297h209c22 0 41 19 41 41v668c0 22-19 41-41 41z" horiz-adv-x="1000" />

<glyph glyph-name="md-logo-googleplus" unicode="&#xe816;" d="M622 399l-4 14h-305v-125h177c-19-88-95-125-165-125-50 0-98 16-133 50-36 35-56 84-56 137 0 53 19 101 54 136 34 35 82 50 134 50 59 0 97-27 113-41l94 93c-26 23-98 80-210 80-87 0-170-32-230-93-60-60-91-145-91-225s29-161 87-221c62-64 150-97 240-97 82 0 160 32 216 90 54 58 82 137 82 220 0 35-3 56-3 57z m378 14h-111v111h-80v-111h-112v-81h112v-111h80v111h111z" horiz-adv-x="1000" />

<glyph glyph-name="md-logo-instagram" unicode="&#xe819;" d="M656 663c42 0 81-17 111-46s46-69 46-111v-312c0-42-17-81-46-111s-69-45-111-45h-312c-42 0-81 16-111 45s-45 69-45 111v312c0 42 16 81 45 111s69 46 111 46h312m0 62h-312c-121 0-219-98-219-219v-312c0-121 98-219 219-219h312c121 0 219 98 219 219v312c0 121-98 219-219 219z m47-219c-26 0-47 21-47 47s21 47 47 47c26 0 47-21 47-47s-21-47-47-47z m-203-31c69 0 125-56 125-125s-56-125-125-125-125 56-125 125 56 125 125 125m0 63c-103 0-187-84-187-188s84-187 187-187 188 84 188 187-84 188-188 188z" horiz-adv-x="1000" />

<glyph glyph-name="md-polymer" unicode="&#xe826;" d="M766 663h-152l-300-494-99 181 171 313h-152l-171-313 171-312h152l300 493 99-181-171-312h152l172 312-172 313z" horiz-adv-x="1000" />

<glyph glyph-name="md-logo-skype" unicode="&#xe82b;" d="M853 270c6 25 9 50 9 76 0 195-161 353-358 353-21 0-41-2-61-5-32 20-70 31-111 31-114 0-207-92-207-204 0-38 10-74 29-104-5-23-8-47-8-71 0-195 160-353 358-353 22 0 44 2 65 6 30-15 63-24 98-24 115 0 208 92 208 205 0 32-8 63-22 90z m-166-92c-16-23-41-42-72-55-32-13-69-19-112-19-52 0-95 9-128 27-24 12-44 30-59 51-16 22-23 43-23 64 0 13 5 24 15 33 9 9 22 14 37 14 12 0 23-4 31-11 9-7 16-17 21-30 7-14 14-27 21-36 7-9 17-17 30-23 13-6 30-9 52-9 29 0 54 6 72 18 18 12 26 27 26 44 0 14-4 25-14 34-9 9-22 16-38 20-16 6-38 11-65 16-38 8-69 18-94 28-26 11-47 26-62 45-15 18-23 42-23 70 0 27 8 51 24 72 16 20 40 36 70 47 30 11 65 16 105 16 32 0 60-3 83-10 24-8 44-17 59-29 16-13 28-25 35-39 8-14 11-27 11-40 0-13-5-24-14-34-10-10-22-15-37-15-13 0-24 3-31 9-7 6-14 15-21 28-9 17-20 30-32 39-12 9-32 14-60 14-26 0-46-5-62-15-15-10-22-21-22-34 0-8 2-15 7-20 5-7 12-12 22-17 9-4 19-8 28-10 10-3 27-7 50-12 29-6 55-13 79-21 24-7 44-16 61-27 17-11 31-25 40-42 10-17 15-38 15-62 1-30-8-56-25-79z" horiz-adv-x="1000" />

<glyph glyph-name="md-logo-vk" unicode="&#xe835;" d="M834 266c-17 15-31 25-36 40-2 5-3 8-2 15 1 11 11 27 77 115 28 37 64 81 64 114 0 22-9 27-40 27h-145c-13 0-21-18-27-32-5-15-16-37-41-86-27-51-63-95-78-102-5-2-8-2-11-2-3 1-8 2-12 8-5 5-12 15-9 105 1 50 7 85-3 107-3 4-7 9-10 11-15 10-57 14-94 14s-64-4-78-8c-14-4-29-13-37-23-4-7 9-4 22-9 7-4 18-9 22-19 15-40 19-72 10-130-2-14-5-36-13-50-5-7-15-7-19-6-31 10-55 51-80 99-26 51-39 86-46 101s-17 22-36 22h-129c-10 0-20-9-20-18 0-21 37-84 59-129 39-81 91-159 160-234 74-81 173-96 205-96s57 1 65 3c4 1 8 3 11 5 14 11 11 31 12 47 1 17 3 38 14 51 10 12 22 15 36 8 14-7 24-18 34-30 20-21 38-45 61-62 11-8 23-14 35-17 17-6 32-6 50-5 18 1 33 1 56 1s54-1 65 6c5 4 12 10 12 23 0 23-24 61-104 136z" horiz-adv-x="1000" />

<glyph glyph-name="md-logo-whatsapp" unicode="&#xe836;" d="M508 788c-237 0-430-191-430-427 0-80 23-156 62-220l-77-229 237 76c62-34 133-53 208-53 237 0 430 191 430 426 0 236-193 427-430 427z m214-589c-11-25-56-47-76-49-21-1-21-15-131 33-110 47-176 163-181 171-5 7-43 60-41 114 2 54 32 79 42 89 11 11 23 13 30 13 9 0 14 0 21 0 6 0 16 1 24-21 8-22 28-76 31-82 2-6 4-12 0-19-4-7-6-12-12-18-5-6-12-14-17-18-6-5-12-11-6-22 6-11 27-48 59-78 40-38 75-51 86-57 11-6 17-5 24 2 6 7 28 30 36 41 8 11 15 9 25 5 10-4 63-33 73-39 11-5 18-8 21-13 2-5 2-27-8-52z" horiz-adv-x="1000" />

<glyph glyph-name="md-logo-youtube" unicode="&#xe83d;" d="M993 559c0 88-64 159-144 159-108 5-219 7-331 7h-36c-112 0-223-2-331-7-79 0-144-71-144-159-5-69-7-139-7-209 0-69 2-139 7-208 0-88 64-160 144-160 114-5 230-7 349-7 119 0 235 2 349 7 80 0 144 72 144 160 5 69 7 139 7 209 0 69-2 139-7 208z m-589-400v384l284-192-284-192z" horiz-adv-x="1000" />

<glyph glyph-name="md-arrow-back" unicode="&#xe84b;" d="M834 392h-507l234 234-61 58-334-334 334-334 58 59-231 233h507v84z" horiz-adv-x="1000" />

<glyph glyph-name="md-arrow-down" unicode="&#xe84c;" d="M542 684v-507l234 234 58-61-334-334-334 334 59 58 233-231v507h84z" horiz-adv-x="1000" />

<glyph glyph-name="md-arrow-forward" unicode="&#xe855;" d="M166 308h507l-233-233 60-59 334 334-334 334-58-58 231-234h-507v-84z" horiz-adv-x="1000" />

<glyph glyph-name="md-arrow-round-back" unicode="&#xe856;" d="M784 413h-418l162 155c23 24 23 63 0 88s-61 24-84 0l-270-262c-12-11-18-27-18-44v0c0-17 6-33 18-44l270-262c23-24 61-24 84 0 23 25 23 64 0 88l-162 156h418c33 0 60 27 60 62 0 35-27 63-60 63z" horiz-adv-x="1000" />

<glyph glyph-name="md-arrow-round-down" unicode="&#xe857;" d="M194 294l262-270c11-12 27-18 44-18h0c17 0 33 6 44 18l262 270c24 23 24 61 0 84-25 23-64 23-88 0l-155-162v418c0 33-28 60-63 60-35 0-62-27-62-60v-418l-156 162c-24 23-63 23-88 0s-24-61 0-84z" horiz-adv-x="1000" />

<glyph glyph-name="md-arrow-round-forward" unicode="&#xe858;" d="M556 44l270 262c12 11 18 27 18 44v0c0 17-6 33-18 44l-270 262c-23 24-61 24-84 0-23-25-23-64 0-88l162-155h-418c-33 0-60-28-60-63 0-35 27-62 60-62h418l-162-156c-23-24-23-63 0-88 23-24 61-24 84 0z" horiz-adv-x="1000" />

<glyph glyph-name="md-arrow-round-up" unicode="&#xe859;" d="M806 406l-262 270c-11 12-27 18-44 18h0c-17 0-33-6-44-18l-262-270c-24-23-24-61 0-84 25-23 64-23 88 0l156 162v-418c0-33 27-60 62-60 35 0 63 27 63 60v418l155-162c24-23 63-23 88 0s24 61 0 84z" horiz-adv-x="1000" />

<glyph glyph-name="md-arrow-up" unicode="&#xe85a;" d="M542 16v507l234-233 58 60-334 334-334-334 59-58 233 231v-507h84z" horiz-adv-x="1000" />

<glyph glyph-name="md-backspace" unicode="&#xe85d;" d="M847 663h-520c-24 0-43-13-55-31l-188-282 188-282c12-18 31-30 55-30h520c38 0 69 31 69 69v486c0 38-31 70-69 70z m-104-438l-49-49-125 125-124-125-49 49 125 125-125 125 49 49 124-125 125 125 49-49-125-125 125-125z" horiz-adv-x="1000" />

<glyph glyph-name="md-bookmark" unicode="&#xe86e;" d="M703 725h-406c-43 0-78-35-78-78v-672l281 125 281-125v672c0 43-35 78-78 78z" horiz-adv-x="1000" />

<glyph glyph-name="md-chatboxes" unicode="&#xe883;" d="M765 725h-652c-9 0-19-7-19-16v-418c0-9 10-17 19-17h112v-174l176 174h364c9 0 14 8 14 17v418c0 9-5 16-14 16z m126-123h-63v-325c0-32-13-52-49-52h-353l-76-76h253l176-174v174h112c9 0 15 8 15 17v418c0 9-6 18-15 18z" horiz-adv-x="1000" />

<glyph glyph-name="md-chatbubbles" unicode="&#xe884;" d="M259 131c-39 0-87 48-87 88v319h-19c-32 0-59-27-59-60v-534l114 113h420c33 0 60 28 60 60v14h-429z m579 625h-545c-38 0-68-30-68-68v-441c0-38 30-69 68-69h465l148-103v613c0 38-30 68-68 68z" horiz-adv-x="1000" />

<glyph glyph-name="md-checkbox-outline" unicode="&#xe886;" d="M329 429l-58-58 187-188 417 417-58 58-359-356-129 127z m463-371h-584v584h417v83h-417c-45 0-83-37-83-83v-584c0-45 38-83 83-83h584c46 0 83 38 83 83v334h-83v-334z" horiz-adv-x="1000" />

<glyph glyph-name="md-checkmark" unicode="&#xe887;" d="M364 186l-176 177-63-60 239-238 511 511-62 59z" horiz-adv-x="1000" />

<glyph glyph-name="md-close" unicode="&#xe88c;" d="M791 583l-58 58-233-233-233 233-58-58 233-233-233-233 58-58 233 233 233-233 58 58-233 233z" horiz-adv-x="1000" />

<glyph glyph-name="md-exit" unicode="&#xe8b1;" d="M421 200l58-58 209 208-209 208-58-58 108-108h-404v-84h402l-106-108z m371 525h-584c-45 0-83-37-83-83v-167h83v167h584v-584h-584v167h-83v-167c0-45 38-83 83-83h584c46 0 83 38 83 83v584c0 46-37 83-83 83z" horiz-adv-x="1000" />

<glyph glyph-name="md-eye" unicode="&#xe8b3;" d="M500 645c-199 0-368-122-437-295 69-173 238-295 437-295s368 122 438 295c-70 173-239 295-438 295z m0-492c-109 0-199 89-199 197s90 197 199 197 199-89 199-197-90-197-199-197z m0 315c-66 0-119-53-119-118s53-118 119-118 119 53 119 118-53 118-119 118z" horiz-adv-x="1000" />

<glyph glyph-name="md-heart" unicode="&#xe8d4;" d="M500-25l-59 53c-209 192-347 317-347 472 0 127 97 225 223 225 71 0 138-33 183-86 45 53 112 86 183 86 126 0 223-98 223-225 0-155-138-280-347-472l-59-53z" horiz-adv-x="1000" />

<glyph glyph-name="md-heart-dislike" unicode="&#xe8d5;" d="M101 700l49-48c-35-40-56-93-56-152 0-155 138-280 347-472l59-53 59 53c40 37 78 72 112 104l180-180 47 47-749 749-48-48z m805-200c0 127-97 225-223 225-71 0-138-33-183-86-45 53-112 86-183 86-16 0-32-2-47-5l495-494c89 95 141 179 141 274z" horiz-adv-x="1000" />

<glyph glyph-name="md-infinite" unicode="&#xe8e1;" d="M849 483c-37 35-85 55-138 55-52 0-100-20-137-55l-34-31 64-63 33 30 1 1c19 18 45 29 73 29 28 0 54-10 74-29 19-19 30-44 30-70 0-27-11-51-30-70-20-18-46-29-74-29s-54 10-73 29l-212 203c-37 35-86 55-137 55-52 0-101-20-138-55-37-35-57-83-57-133 0-50 20-97 57-133 37-35 86-54 138-54 52 0 101 19 137 54l74 71 74-71c37-35 85-54 137-54 52 0 101 19 138 54 37 35 57 82 57 133 0 50-20 98-57 133z m-487-203c-19-18-46-29-73-29-28 0-54 10-74 29-19 19-30 44-30 70 0 26 11 51 30 70 20 18 46 29 74 29 27 0 54-10 73-29l73-70-73-70z" horiz-adv-x="1000" />

<glyph glyph-name="md-information" unicode="&#xe8e2;" d="M453 391h94v-268h-94z m0 186h94v-94h-94z" horiz-adv-x="1000" />

<glyph glyph-name="md-list" unicode="&#xe8ec;" d="M156 303h500v-94h-500z m0 188h625v-94h-625z m0 187h688v-94h-688z m0-562h563v-94h-563z" horiz-adv-x="1000" />

<glyph glyph-name="md-log-out" unicode="&#xe8f1;" d="M375 308h371l-86-87 59-58 187 187-187 188-61-59 88-87h-371v-84z m124-281c-86 0-167 34-227 95-61 61-95 142-95 228 0 86 34 167 95 228 60 61 141 95 227 95 86 0 167-33 228-94l59 59c-16 16-35 32-54 45-68 48-149 73-233 73-223 0-405-182-405-406s182-406 405-406c84 0 165 25 233 73 19 14 37 29 54 45l-59 59c-61-60-142-94-228-94z m376 321l-2 2 2 2 2-2z" horiz-adv-x="1000" />

<glyph glyph-name="md-menu" unicode="&#xe8fd;" d="M125 100h750v83h-750v-83z m0 208h750v84h-750v-84z m0 292v-83h750v83h-750z" horiz-adv-x="1000" />

<glyph glyph-name="md-more" unicode="&#xe902;" d="M578 584c0 43-35 79-78 79s-78-36-78-79 35-78 78-78 78 35 78 78z m0-468c0 43-35 78-78 78s-78-35-78-78 35-78 78-78 78 35 78 78z m0 234c0 43-35 78-78 78s-78-35-78-78 35-78 78-78 78 35 78 78z" horiz-adv-x="1000" />

<glyph glyph-name="md-options" unicode="&#xe90d;" d="M63 100h531v-62h-531z m718 0h157v-62h-157z m-31-124c0-35-28-64-62-64-35 0-63 29-63 64v186c0 35 28 63 63 63 34 0 62-28 62-63v-186z m-687 405h156v-62h-156z m343 0h532v-62h-532z m-31-124c0-35-28-63-62-63-35 0-63 28-63 63v186c0 35 28 63 63 63 34 0 62-28 62-63v-186z m-312 406h531v-63h-531z m718 0h157v-63h-157z m-31-124c0-36-28-64-62-64-35 0-63 28-63 64v185c0 35 28 64 63 64 34 0 62-29 62-64v-185z" horiz-adv-x="1000" />

<glyph glyph-name="md-person" unicode="&#xe915;" d="M500 350c103 0 188 84 188 188s-85 187-188 187-187-84-187-187 84-188 187-188z m0-94c-124 0-375-63-375-187v-94h750v94c0 124-251 187-375 187z" horiz-adv-x="1000" />

<glyph glyph-name="md-pin" unicode="&#xe91b;" d="M500 788c-172 0-312-138-312-307 0-229 312-569 312-569s313 340 313 569c0 169-141 307-313 307z m0-416c-62 0-112 48-112 109 0 62 50 110 112 110s112-48 112-110c0-61-49-109-112-109z" horiz-adv-x="1000" />

<glyph glyph-name="md-play" unicode="&#xe91f;" d="M188 748v-796l625 398-625 398z" horiz-adv-x="1000" />

<glyph glyph-name="md-pricetag" unicode="&#xe923;" d="M813 725h-310l-354-366c-15-16-24-36-24-57-1-22 8-44 24-61l242-241c16-16 41-25 56-25s45 8 62 25l366 350v313l-62 62z m-60-201c-43-11-81 20-81 60 0 35 28 63 62 63 41 0 72-38 60-81-5-20-21-36-41-42z" horiz-adv-x="1000" />

<glyph glyph-name="md-reorder" unicode="&#xe934;" d="M188 170h625v-70h-625z m0 430h625v-70h-625z m0-142h625v-69h-625z m0-147h625v-69h-625z" horiz-adv-x="1000" />

<glyph glyph-name="md-search" unicode="&#xe942;" d="M659 254h-34l-13 10c41 50 66 112 66 182 0 155-123 279-277 279-152 0-276-124-276-279s124-278 278-278c68 0 132 26 181 66l13-10v-35l214-214 64 64-216 215z m-256 0c-107 0-192 85-192 192 0 108 85 193 192 193 107 0 192-85 192-193 0-107-85-192-192-192z" horiz-adv-x="1000" />

<glyph glyph-name="md-settings" unicode="&#xe944;" d="M809 309c2 13 2 27 2 41s-2 26-2 41l87 67c8 6 10 16 4 26l-83 140c-4 8-17 12-25 8l-104-40c-21 16-46 30-71 40l-14 108c-2 8-10 16-21 16h-166c-10 0-19-8-21-16l-16-108c-25-10-48-24-71-40l-104 40c-10 4-21 0-25-8l-83-140c-4-8-2-20 4-26l89-67c0-15-2-27-2-41s2-26 2-41l-87-67c-8-6-10-16-4-26l83-140c4-8 17-12 25-8l104 40c21-16 46-30 71-40l16-108c2-10 11-16 21-16h166c11 0 19 8 21 16l17 108c25 10 47 24 70 40l104-40c10-4 21 0 25 8l83 140c4 8 2 20-4 26l-91 67z m-310-101c-81 0-145 63-145 142s64 142 145 142 145-63 145-142-64-142-145-142z" horiz-adv-x="1000" />

<glyph glyph-name="md-star" unicode="&#xe94f;" d="M500 122l244-147-65 278 216 186-284 24-111 262-111-262-283-24 215-186-65-278z" horiz-adv-x="1000" />

<glyph glyph-name="md-text" unicode="&#xe95c;" d="M797 725h-609c-43 0-63-35-63-78v-672l125 125h547c43 0 78 35 78 78v469c0 43-35 78-78 78z m-409-348h-75v79h75v-79z m150 0h-75v79h75v-79z m150 0h-75v79h75v-79z" horiz-adv-x="1000" />

<glyph glyph-name="md-thumbs-down" unicode="&#xe95e;" d="M613 725h-336c-30 0-55-19-66-46l-112-264c-3-9-5-18-5-27v-76c0-41 33-87 74-87h233l-36-159-1-12c0-15 7-29 17-39l39-40 246 249c13 13 22 32 22 53v375c0 41-34 73-75 73z m168 0h125v-437h-125z" horiz-adv-x="1000" />

<glyph glyph-name="md-thumbs-up" unicode="&#xe95f;" d="M387-25h336c30 0 56 19 67 46l111 264c3 9 5 18 5 28v75c0 41-33 87-74 87h-233l36 159 1 12c0 15-6 29-16 40l-40 39-246-249c-13-13-21-32-21-53v-375c0-41 33-73 74-73z m-293 438h125v-438h-125z" horiz-adv-x="1000" />

<glyph glyph-name="md-unlock" unicode="&#xe96d;" d="M734 487h-39v78c0 107-88 195-195 195s-195-88-195-195h74c0 66 55 121 121 121 66 0 121-55 121-121h0v-78h-355c-43 0-78-35-78-78v-391c0-43 35-78 78-78h468c43 0 79 35 79 78v391c0 43-36 78-79 78z m-234-356c-43 0-78 35-78 78s35 79 78 79 78-36 78-79-35-78-78-78z" horiz-adv-x="1000" />

<glyph glyph-name="md-phone_desktop-[#207]" unicode="&#xee74;" d="M900 850l-800 0c-55 0-100-45-100-100l0-50c0-28 22-50 50-50 28 0 50 22 50 50 0 28 22 50 50 50l700 0c28 0 50-22 50-50l0-400c0-28-22-50-50-50l-200 0c-55 0-100-45-100-100l0-200c0-55 45-100 100-100l150 0c28 0 50 22 50 50 0 28-22 50-50 50l-100 0c-28 0-50 22-50 50l0 100c0 28 22 50 50 50l200 0c55 0 100 45 100 100l0 500c0 55-45 100-100 100m-500-850l0 450c0 28-22 50-50 50l-200 0c-28 0-50-22-50-50l0-450c0-28 22-50 50-50l200 0c28 0 50 22 50 50m-300 600l300 0c55 0 100-45 100-100l0-550c0-55-45-100-100-100l-300 0c-55 0-100 45-100 100l0 550c0 55 45 100 100 100m202-500l0 0c0-28-22-50-50-50-27 0-50 22-50 50 0 28 23 50 50 50 28 0 50-22 50-50" horiz-adv-x="1000" />

<glyph glyph-name="md-search_right-[#1507]" unicode="&#xef24;" d="M297 204l74-71-297-283-74 71 297 283z m386 46c-145 0-263 112-263 250 0 138 118 250 263 250 144 0 262-112 262-250 0-138-118-250-262-250l0 0z m0 600c-203 0-368-157-368-350 0-193 165-350 368-350 203 0 367 157 367 350 0 193-164 350-367 350l0 0z" horiz-adv-x="1050" />

<glyph glyph-name="md-video_camera_round-[#964]" unicode="&#xeffb;" d="M1059 243l0-2 0-142-131 84 131 73 0-13z m-353-211c0-34-26-61-59-61l-470 0c-33 0-59 27-59 61l0 242c0 34 26 61 59 61l470 0c33 0 59-27 59-61l0-242z m-464 576c32 0 59-28 59-61 0-33-27-61-59-61-33 0-59 28-59 61 0 33 26 61 59 61l0 0z m294 121c65 0 118-55 118-121 0-67-53-122-118-122-65 0-118 55-118 122 0 66 53 121 118 121l0 0z m551-300l-263-170 0 106c0 59-37 109-91 119 21 36 36 78 36 124 0 134-104 242-234 242-95 0-176-58-213-142-25 13-51 21-80 21-98 0-177-82-177-182 0-25 0-49 10-71-41-19-75-61-75-111l0-363c0-67 63-152 128-152l588 0c65 0 108 85 108 152l0 105 263-169c39-25 90 4 90 52l0 387c0 48-51 77-90 52l0 0z" horiz-adv-x="1176" />

<glyph glyph-name="md-isight" unicode="&#xf039;" d="M0 350q0 95 37 182t100 149 150 100 182 37 182-37 149-100 100-149 37-182-37-182-100-150-149-100-182-37-182 37-150 100-100 150-37 182z m176 0q0-79 39-147t107-107 147-39 146 39 107 107 39 147q0 79-39 147t-107 106-146 40-147-40-107-106-39-147z m176-150q99 6 167 79t68 171q0 27-5 53 35-26 56-67t21-86q0-79-56-134t-134-56q-65 0-117 40z" horiz-adv-x="937.5" />
</font>
</defs>
</svg>
